<svg id="add-reaction" viewBox="0 0 24 24">
  <path d="M12.0088 3C7.03216 3 3 7.02823 3 12C3 16.9718 7.03216 21 12.0088 21C16.9854 21 21.0176 16.9718 21.0176 12C21.0176 7.02823 16.9854 3 12.0088 3ZM12.0088 19.2581C8.00206 19.2581 4.74364 16.0028 4.74364 12C4.74364 7.99718 8.00206 4.74194 12.0088 4.74194C16.0155 4.74194 19.274 7.99718 19.274 12C19.274 16.0028 16.0155 19.2581 12.0088 19.2581ZM9.10273 11.4194C9.7457 11.4194 10.2652 10.9004 10.2652 10.2581C10.2652 9.61573 9.7457 9.09677 9.10273 9.09677C8.45977 9.09677 7.94031 9.61573 7.94031 10.2581C7.94031 10.9004 8.45977 11.4194 9.10273 11.4194ZM14.9149 11.4194C15.5578 11.4194 16.0773 10.9004 16.0773 10.2581C16.0773 9.61573 15.5578 9.09677 14.9149 9.09677C14.2719 9.09677 13.7524 9.61573 13.7524 10.2581C13.7524 10.9004 14.2719 11.4194 14.9149 11.4194ZM15.0602 14.054C14.3046 14.9613 13.1894 15.4839 12.0088 15.4839C10.8282 15.4839 9.71301 14.9649 8.95743 14.054C8.64866 13.6839 8.09651 13.6367 7.72962 13.9415C7.3591 14.25 7.31187 14.798 7.61701 15.1681C8.70678 16.4746 10.3088 17.2222 12.0088 17.2222C13.7088 17.2222 15.3108 16.4746 16.4006 15.1681C16.7094 14.798 16.6585 14.25 16.288 13.9415C15.9211 13.6367 15.3689 13.6839 15.0602 14.054Z"/>
</svg>