<svg id="bell" viewBox="0 0 24 24">
<path d="M20.175 13.2434L18.7502 8.11703C18.3325 6.61521 17.4249 5.29607 16.1715 4.36932C14.9181 3.44256 13.3908 2.96136 11.8326 3.00222C10.2743 3.04307 8.77437 3.60364 7.57125 4.5948C6.36812 5.58596 5.53083 6.95084 5.19247 8.47249L4.08935 13.4332C3.9675 13.9813 3.97031 14.5498 4.09759 15.0967C4.22487 15.6436 4.47335 16.155 4.8247 16.593C5.17605 17.031 5.62129 17.3845 6.12755 17.6274C6.63381 17.8703 7.18816 17.9964 7.74968 17.9964H8.58508C8.7572 18.844 9.21706 19.6061 9.88674 20.1534C10.5564 20.7008 11.3947 20.9998 12.2597 20.9998C13.1246 20.9998 13.9629 20.7008 14.6326 20.1534C15.3023 19.6061 15.7621 18.844 15.9342 17.9964H16.5627C17.1407 17.9964 17.7109 17.8628 18.2288 17.606C18.7467 17.3492 19.1981 16.9761 19.5479 16.516C19.8978 16.0558 20.1364 15.521 20.2453 14.9533C20.3543 14.3856 20.3304 13.8004 20.1758 13.2434H20.175ZM12.2597 19.4962C11.796 19.4943 11.3443 19.3492 10.9663 19.0807C10.5883 18.8122 10.3024 18.4335 10.1479 17.9964H14.3714C14.2169 18.4335 13.931 18.8122 13.553 19.0807C13.175 19.3492 12.7233 19.4943 12.2597 19.4962ZM18.3535 15.6079C18.1445 15.8851 17.8738 16.1098 17.5628 16.2641C17.2518 16.4183 16.9091 16.4979 16.5619 16.4966H7.74968C7.4128 16.4965 7.08024 16.4208 6.77654 16.275C6.47284 16.1293 6.20576 15.9171 5.995 15.6543C5.78424 15.3915 5.63519 15.0848 5.55885 14.7567C5.48251 14.4285 5.48083 14.0875 5.55393 13.7586L6.6563 8.7972C6.92204 7.602 7.57968 6.52992 8.52468 5.75139C9.46968 4.97286 10.6478 4.53257 11.8718 4.50051C13.0958 4.46844 14.2953 4.84645 15.2798 5.57443C16.2643 6.30241 16.9771 7.33858 17.3051 8.51824L18.7299 13.6446C18.8241 13.9786 18.8391 14.33 18.7737 14.6708C18.7084 15.0116 18.5645 15.3324 18.3535 15.6079Z"/>
</svg>
