<svg id="clip" viewBox="0 0 24 24">
<path d="M20.1585 10.1797C20.0177 10.0388 19.8266 9.95973 19.6275 9.95973C19.4283 9.95973 19.2373 10.0388 19.0964 10.1797L10.9146 18.3967C10.5659 18.7455 10.1518 19.0222 9.69611 19.211C9.24042 19.3998 8.752 19.497 8.25874 19.4971C7.26256 19.4971 6.30716 19.1015 5.6027 18.3971C4.89825 17.6928 4.50245 16.7374 4.50238 15.7412C4.50231 14.7451 4.89797 13.7897 5.60233 13.0852L13.5264 5.12878C13.9502 4.7118 14.5215 4.47915 15.116 4.4815C15.7105 4.48385 16.28 4.72101 16.7004 5.14133C17.1208 5.56165 17.3581 6.13107 17.3606 6.72556C17.3631 7.32004 17.1305 7.89143 16.7137 8.31526L8.78955 16.2717C8.64664 16.4086 8.45638 16.485 8.25847 16.485C8.06057 16.485 7.87031 16.4086 7.72739 16.2717C7.58657 16.1308 7.50746 15.9398 7.50746 15.7406C7.50746 15.5414 7.58657 15.3504 7.72739 15.2095L14.7824 8.12221C14.9192 7.98053 14.9949 7.79078 14.9932 7.59383C14.9915 7.39687 14.9125 7.20847 14.7733 7.0692C14.634 6.92992 14.4456 6.85092 14.2486 6.84921C14.0517 6.8475 13.8619 6.92322 13.7202 7.06005L6.66524 14.1474C6.45594 14.3566 6.28991 14.6051 6.17664 14.8785C6.06336 15.1519 6.00506 15.445 6.00506 15.741C6.00506 16.0369 6.06336 16.33 6.17664 16.6034C6.28991 16.8769 6.45594 17.1253 6.66524 17.3346C7.09462 17.7443 7.66533 17.9729 8.25885 17.9729C8.85237 17.9729 9.42308 17.7443 9.85246 17.3346L17.7758 9.37741C18.4654 8.67004 18.8485 7.71947 18.8422 6.73161C18.8359 5.74376 18.4406 4.79818 17.742 4.0997C17.0434 3.40121 16.0978 3.00608 15.1099 2.99989C14.1221 2.9937 13.1716 3.37695 12.4643 4.06663L4.54017 12.023C3.55402 13.0092 3 14.3467 3 15.7413C3 17.136 3.55402 18.4735 4.54017 19.4596C5.52633 20.4458 6.86384 20.9998 8.25847 20.9998C9.65311 20.9998 10.9906 20.4458 11.9768 19.4596L20.1585 11.2448C20.2287 11.175 20.2844 11.092 20.3224 11.0006C20.3604 10.9092 20.38 10.8112 20.38 10.7122C20.38 10.6133 20.3604 10.5153 20.3224 10.4239C20.2844 10.3325 20.2287 10.2495 20.1585 10.1797Z"/>
</svg>
