<svg id="dollar" viewBox="0 0 24 24">
  <path d="M13.699 6C14.3091 6.0006 14.894 6.24321 15.3254 6.67461C15.7568 7.106 15.9994 7.69092 16 8.301C16 8.49991 16.079 8.69068 16.2197 8.83133C16.3603 8.97198 16.5511 9.051 16.75 9.051C16.9489 9.051 17.1397 8.97198 17.2803 8.83133C17.421 8.69068 17.5 8.49991 17.5 8.301V8.25C17.5 8.23575 17.5 8.223 17.5 8.20875C17.475 7.21705 17.0636 6.27434 16.3536 5.58154C15.6435 4.88875 14.691 4.50066 13.699 4.5H13V3.75C13 3.55109 12.921 3.36032 12.7803 3.21967C12.6397 3.07902 12.4489 3 12.25 3C12.0511 3 11.8603 3.07902 11.7197 3.21967C11.579 3.36032 11.5 3.55109 11.5 3.75V4.5H10.801C9.89899 4.50096 9.02672 4.82268 8.3401 5.40763C7.65347 5.99259 7.19726 6.80267 7.05299 7.69307C6.90872 8.58347 7.08581 9.49615 7.55259 10.268C8.01938 11.0398 8.74544 11.6205 9.601 11.9062L11.5 12.54V18H10.801C10.1909 17.9994 9.606 17.7568 9.17461 17.3254C8.74321 16.894 8.5006 16.3091 8.5 15.699C8.5 15.5001 8.42098 15.3093 8.28033 15.1687C8.13968 15.028 7.94891 14.949 7.75 14.949C7.55109 14.949 7.36032 15.028 7.21967 15.1687C7.07902 15.3093 7 15.5001 7 15.699V15.75C7 15.7642 7 15.777 7 15.7913C7.02503 16.783 7.4364 17.7257 8.14642 18.4185C8.85645 19.1113 9.80898 19.4993 10.801 19.5H11.5V20.25C11.5 20.4489 11.579 20.6397 11.7197 20.7803C11.8603 20.921 12.0511 21 12.25 21C12.4489 21 12.6397 20.921 12.7803 20.7803C12.921 20.6397 13 20.4489 13 20.25V19.5H13.699C14.601 19.499 15.4733 19.1773 16.1599 18.5924C16.8465 18.0074 17.3027 17.1973 17.447 16.3069C17.5913 15.4165 17.4142 14.5038 16.9474 13.732C16.4806 12.9602 15.7546 12.3795 14.899 12.0938L13 11.46V6H13.699ZM14.4265 13.5157C14.9451 13.6883 15.3853 14.0399 15.6683 14.5074C15.9513 14.975 16.0587 15.528 15.9712 16.0675C15.8836 16.607 15.6069 17.0977 15.1906 17.4518C14.7743 17.8059 14.2455 18.0002 13.699 18H13V13.0402L14.4265 13.5157ZM11.5 10.9598L10.075 10.4843C9.55655 10.3117 9.11643 9.96028 8.8334 9.49289C8.55037 9.0255 8.4429 8.47264 8.53023 7.93326C8.61755 7.39387 8.89397 6.90317 9.31002 6.54896C9.72607 6.19475 10.2546 6.00015 10.801 6H11.5V10.9598Z"/>
</svg>