<svg id="magnifier" viewBox="0 0 24 24">
  <path d="M20.7896 19.7303L16.3166 15.2572C17.5355 13.7664 18.1349 11.864 17.9906 9.94372C17.8463 8.0234 16.9694 6.23199 15.5414 4.94005C14.1133 3.6481 12.2434 2.95446 10.3182 3.00259C8.39309 3.05073 6.56011 3.83696 5.19841 5.19865C3.83671 6.56035 3.05048 8.39334 3.00235 10.3185C2.95421 12.2436 3.64786 14.1136 4.9398 15.5416C6.23175 16.9697 8.02315 17.8465 9.94347 17.9908C11.8638 18.1351 13.7661 17.5358 15.2569 16.3168L19.73 20.7899C19.8713 20.9264 20.0606 21.0019 20.2571 21.0002C20.4536 20.9985 20.6416 20.9197 20.7805 20.7808C20.9195 20.6418 20.9983 20.4539 21 20.2574C21.0017 20.0609 20.9261 19.8716 20.7896 19.7303ZM10.5178 16.5131C9.33212 16.5131 8.17303 16.1615 7.18714 15.5028C6.20126 14.844 5.43286 13.9077 4.9791 12.8123C4.52535 11.7168 4.40663 10.5114 4.63795 9.34849C4.86927 8.18556 5.44025 7.11734 6.27867 6.27892C7.1171 5.44049 8.18532 4.86951 9.34825 4.63819C10.5112 4.40687 11.7166 4.52559 12.812 4.97935C13.9075 5.4331 14.8438 6.2015 15.5026 7.18739C16.1613 8.17327 16.5129 9.33236 16.5129 10.5181C16.5111 12.1075 15.8789 13.6314 14.755 14.7553C13.6311 15.8792 12.1073 16.5114 10.5178 16.5131Z"/>
</svg>
