<svg id="menu" viewBox="0 0 25 24">
  <path d="M12.7727 6C13.6011 6 14.2727 5.32843 14.2727 4.5C14.2727 3.67157 13.6011 3 12.7727 3C11.9443 3 11.2727 3.67157 11.2727 4.5C11.2727 5.32843 11.9443 6 12.7727 6Z"/>
  <path d="M12.7727 13.5C13.6011 13.5 14.2727 12.8284 14.2727 12C14.2727 11.1716 13.6011 10.5 12.7727 10.5C11.9443 10.5 11.2727 11.1716 11.2727 12C11.2727 12.8284 11.9443 13.5 12.7727 13.5Z"/>
  <path d="M12.7727 21C13.6011 21 14.2727 20.3284 14.2727 19.5C14.2727 18.6716 13.6011 18 12.7727 18C11.9443 18 11.2727 18.6716 11.2727 19.5C11.2727 20.3284 11.9443 21 12.7727 21Z"/>
</svg>