<svg id="quote" viewBox="0 0 24 24">
  <path d="M5.625 3.60938C2.52338 3.60938 0 6.13275 0 9.23438C0 10.7175 0.57225 12.117 1.61128 13.1751C2.61713 14.1994 3.95053 14.7923 5.37886 14.8538C5.38561 14.943 5.39062 15.066 5.39062 15.2344C5.39062 15.924 4.86619 18.0312 4.53558 19.1974L4.19728 20.3906H8.30278L8.5778 19.9475C8.68687 19.7717 11.25 15.5694 11.25 9.23438C11.25 6.13275 8.72663 3.60938 5.625 3.60938ZM7.22761 18.5156H6.65902C6.92841 17.457 7.26562 15.9825 7.26562 15.2344C7.26562 14.6407 7.22156 14.1638 7.00636 13.7658C6.81469 13.4112 6.41381 12.9889 5.59153 12.9844L5.55061 12.9834C3.52388 12.9441 1.875 11.2623 1.875 9.23438C1.875 7.16663 3.55725 5.48438 5.625 5.48438C7.69275 5.48438 9.375 7.16663 9.375 9.23438C9.375 13.89 7.83581 17.336 7.22761 18.5156Z"/>
  <path d="M18.375 3.60938C15.2734 3.60938 12.75 6.13275 12.75 9.23438C12.75 10.7175 13.3222 12.117 14.3613 13.1751C15.3671 14.1994 16.7005 14.7923 18.1289 14.8538C18.1356 14.943 18.1406 15.066 18.1406 15.2344C18.1406 15.924 17.6162 18.0312 17.2856 19.1974L16.9473 20.3906H21.0528L21.3278 19.9475C21.4369 19.7717 24 15.5694 24 9.23438C24 6.13275 21.4766 3.60938 18.375 3.60938ZM19.9776 18.5156H19.409C19.6784 17.457 20.0156 15.9825 20.0156 15.2344C20.0156 14.6407 19.9716 14.1638 19.7564 13.7658C19.5647 13.4112 19.1638 12.9889 18.3415 12.9844L18.3006 12.9834C16.2739 12.9441 14.625 11.2623 14.625 9.23438C14.625 7.16663 16.3073 5.48438 18.375 5.48438C20.4427 5.48438 22.125 7.16663 22.125 9.23438C22.125 13.89 20.5858 17.336 19.9776 18.5156Z"/>
</svg>