<svg id="send" viewBox="0 0 24 24">
<path d="M20.3377 3.66119C20.0688 3.38903 19.7342 3.19082 19.3664 3.08571C18.9985 2.98061 18.6097 2.97216 18.2376 3.06118L6.23732 5.58874C5.54624 5.68352 4.89534 5.96936 4.35793 6.41407C3.82052 6.85878 3.41794 7.4447 3.19553 8.10585C2.97312 8.767 2.93971 9.47711 3.09908 10.1562C3.25844 10.8353 3.60423 11.4564 4.09752 11.9496L5.38605 13.2374C5.45579 13.3071 5.5111 13.3899 5.54881 13.4811C5.58652 13.5722 5.60589 13.6698 5.60581 13.7684V16.1445C5.60746 16.4786 5.68437 16.808 5.83081 17.1083L5.82481 17.1135L5.84431 17.133C6.06408 17.5749 6.42302 17.9322 6.86584 18.1501L6.88534 18.1696L6.89059 18.1636C7.19087 18.31 7.52028 18.3869 7.85436 18.3886H10.2304C10.4292 18.3884 10.6199 18.4672 10.7607 18.6076L12.0485 19.8953C12.3939 20.2446 12.805 20.522 13.2581 20.7116C13.7112 20.9012 14.1974 20.9993 14.6885 21.0001C15.0979 20.9996 15.5044 20.9327 15.8923 20.8021C16.5474 20.587 17.1294 20.1931 17.5725 19.6649C18.0157 19.1366 18.3024 18.4951 18.4004 17.8125L20.9317 5.78599C21.0253 5.41072 21.0198 5.01754 20.9157 4.64504C20.8115 4.27254 20.6124 3.9335 20.3377 3.66119ZM6.44808 12.1784L5.1588 10.8906C4.85858 10.5976 4.64816 10.2251 4.55225 9.81671C4.45633 9.40833 4.47889 8.98107 4.61728 8.58506C4.75146 8.1788 4.9995 7.81961 5.3319 7.55024C5.6643 7.28086 6.06708 7.11262 6.49233 7.06553L18.3734 4.56421L7.10435 15.8347V13.7684C7.10548 13.4732 7.04807 13.1806 6.93542 12.9077C6.82277 12.6348 6.65713 12.3869 6.44808 12.1784ZM16.9266 17.556C16.869 17.9703 16.6971 18.3603 16.4302 18.6823C16.1632 19.0043 15.8118 19.2455 15.4154 19.3788C15.019 19.5122 14.5932 19.5324 14.186 19.4373C13.7787 19.3421 13.406 19.1353 13.1097 18.8401L11.8197 17.55C11.6115 17.3407 11.3638 17.1747 11.091 17.0616C10.8182 16.9486 10.5257 16.8908 10.2304 16.8915H8.16412L19.4347 5.62474L16.9266 17.556Z" />
</svg>
