<svg id="sort" viewBox="0 0 24 24">
  <path d="M4.9096 3.8181C4.9096 3.60112 4.82341 3.39304 4.66999 3.23961C4.51657 3.08619 4.30848 3 4.09151 3C3.87454 3 3.66645 3.08619 3.51303 3.23961C3.35961 3.39304 3.27341 3.60112 3.27341 3.8181V18.2051L1.39834 16.3284C1.32228 16.2523 1.23198 16.192 1.1326 16.1508C1.03321 16.1097 0.926698 16.0885 0.819128 16.0885C0.711559 16.0885 0.605043 16.1097 0.505662 16.1508C0.40628 16.192 0.31598 16.2523 0.239917 16.3284C0.163854 16.4045 0.103518 16.4948 0.0623525 16.5941C0.0211874 16.6935 0 16.8 0 16.9076C0 17.0152 0.0211874 17.1217 0.0623525 17.2211C0.103518 17.3205 0.163854 17.4108 0.239917 17.4868L3.5123 20.7576L3.52375 20.769C3.67735 20.9188 3.88391 21.0018 4.09844 21C4.31297 20.9981 4.51807 20.9116 4.66908 20.7592L7.94146 17.4868C8.09508 17.3334 8.18147 17.1253 8.18162 16.9082C8.18177 16.6911 8.09568 16.4828 7.94228 16.3292C7.78888 16.1756 7.58074 16.0892 7.36365 16.0891C7.14656 16.0889 6.93829 16.175 6.78468 16.3284L4.9096 18.2051V3.8181ZM11.4544 4.63619C11.2374 4.63619 11.0293 4.55 10.8759 4.39658C10.7225 4.24315 10.6363 4.03507 10.6363 3.8181C10.6363 3.60112 10.7225 3.39304 10.8759 3.23961C11.0293 3.08619 11.2374 3 11.4544 3H13.0906C13.3075 3 13.5156 3.08619 13.669 3.23961C13.8225 3.39304 13.9086 3.60112 13.9086 3.8181C13.9086 4.03507 13.8225 4.24315 13.669 4.39658C13.5156 4.55 13.3075 4.63619 13.0906 4.63619H11.4544ZM11.4544 9.54476C11.2374 9.54476 11.0293 9.45857 10.8759 9.30515C10.7225 9.15172 10.6363 8.94364 10.6363 8.72667C10.6363 8.50969 10.7225 8.30161 10.8759 8.14818C11.0293 7.99476 11.2374 7.90857 11.4544 7.90857H16.3629C16.5799 7.90857 16.788 7.99476 16.9414 8.14818C17.0948 8.30161 17.181 8.50969 17.181 8.72667C17.181 8.94364 17.0948 9.15172 16.9414 9.30515C16.788 9.45857 16.5799 9.54476 16.3629 9.54476H11.4544ZM11.4544 14.4533C11.2374 14.4533 11.0293 14.3671 10.8759 14.2137C10.7225 14.0603 10.6363 13.8522 10.6363 13.6352C10.6363 13.4183 10.7225 13.2102 10.8759 13.0568C11.0293 12.9033 11.2374 12.8171 11.4544 12.8171H19.6353C19.8523 12.8171 20.0604 12.9033 20.2138 13.0568C20.3672 13.2102 20.4534 13.4183 20.4534 13.6352C20.4534 13.8522 20.3672 14.0603 20.2138 14.2137C20.0604 14.3671 19.8523 14.4533 19.6353 14.4533H11.4544ZM10.6363 18.5438C10.6363 18.7608 10.7225 18.9689 10.8759 19.1223C11.0293 19.2757 11.2374 19.3619 11.4544 19.3619H22.9077C23.1247 19.3619 23.3328 19.2757 23.4862 19.1223C23.6396 18.9689 23.7258 18.7608 23.7258 18.5438C23.7258 18.3268 23.6396 18.1187 23.4862 17.9653C23.3328 17.8119 23.1247 17.7257 22.9077 17.7257H11.4544C11.2374 17.7257 11.0293 17.8119 10.8759 17.9653C10.7225 18.1187 10.6363 18.3268 10.6363 18.5438Z" fill="black"/>
</svg>
