<svg id="thread" viewBox="0 0 25 24">
<path d="M21.2556 11.4448C21.1472 9.69157 20.5282 8.00838 19.4747 6.60272C18.4213 5.19706 16.9796 4.13039 15.3273 3.53421C13.675 2.93804 11.8843 2.83841 10.1761 3.24762C8.46782 3.65684 6.91666 4.557 5.71382 5.83713C4.51098 7.11726 3.70905 8.7214 3.40687 10.4518C3.1047 12.1822 3.31551 13.9632 4.0133 15.5752C4.71109 17.1872 5.86536 18.5598 7.33382 19.5238C8.80228 20.4877 10.5207 21.0009 12.2773 21H17.5093C18.5026 20.999 19.4549 20.604 20.1572 19.9017C20.8596 19.1993 21.2546 18.247 21.2556 17.2537V11.4448ZM19.7571 17.2537C19.7571 17.8499 19.5203 18.4216 19.0987 18.8431C18.6772 19.2647 18.1055 19.5015 17.5093 19.5015H12.2773C11.2201 19.501 10.1748 19.2777 9.20964 18.8461C8.24449 18.4146 7.38115 17.7844 6.6759 16.9968C5.96724 16.2095 5.43509 15.2798 5.11513 14.2701C4.79517 13.2603 4.6948 12.1938 4.82075 11.1421C5.01963 9.48322 5.76495 7.9377 6.93922 6.74919C8.11348 5.56068 9.6499 4.79679 11.3063 4.57792C11.6294 4.53743 11.9547 4.51691 12.2803 4.51648C14.0264 4.51172 15.7185 5.12181 17.0598 6.23976C17.8431 6.89082 18.4861 7.69417 18.9498 8.60112C19.4134 9.50807 19.6881 10.4997 19.7571 11.516V17.2537Z"/>
<path d="M9.26756 9.7612H12.2646C12.4633 9.7612 12.6539 9.68226 12.7944 9.54175C12.9349 9.40123 13.0138 9.21066 13.0138 9.01195C13.0138 8.81323 12.9349 8.62266 12.7944 8.48215C12.6539 8.34163 12.4633 8.2627 12.2646 8.2627H9.26756C9.06885 8.2627 8.87827 8.34163 8.73776 8.48215C8.59725 8.62266 8.51831 8.81323 8.51831 9.01195C8.51831 9.21066 8.59725 9.40123 8.73776 9.54175C8.87827 9.68226 9.06885 9.7612 9.26756 9.7612Z"/>
<path d="M15.2616 11.2597H9.26756C9.06885 11.2597 8.87827 11.3386 8.73776 11.4791C8.59725 11.6196 8.51831 11.8102 8.51831 12.0089C8.51831 12.2076 8.59725 12.3982 8.73776 12.5387C8.87827 12.6792 9.06885 12.7582 9.26756 12.7582H15.2616C15.4603 12.7582 15.6509 12.6792 15.7914 12.5387C15.9319 12.3982 16.0108 12.2076 16.0108 12.0089C16.0108 11.8102 15.9319 11.6196 15.7914 11.4791C15.6509 11.3386 15.4603 11.2597 15.2616 11.2597Z"/>
<path d="M15.2616 14.2567H9.26756C9.06885 14.2567 8.87827 14.3356 8.73776 14.4761C8.59725 14.6166 8.51831 14.8072 8.51831 15.0059C8.51831 15.2046 8.59725 15.3952 8.73776 15.5357C8.87827 15.6762 9.06885 15.7552 9.26756 15.7552H15.2616C15.4603 15.7552 15.6509 15.6762 15.7914 15.5357C15.9319 15.3952 16.0108 15.2046 16.0108 15.0059C16.0108 14.8072 15.9319 14.6166 15.7914 14.4761C15.6509 14.3356 15.4603 14.2567 15.2616 14.2567Z"/>
</svg>
